<?xml version="1.0" standalone="no"?>
<!DOCTYPE svg PUBLIC "-//W3C//DTD SVG 20010904//EN"
 "http://www.w3.org/TR/2001/REC-SVG-20010904/DTD/svg10.dtd">
<svg version="1.0" xmlns="http://www.w3.org/2000/svg"
 width="512.000000pt" height="512.000000pt" viewBox="0 0 512.000000 512.000000"
 preserveAspectRatio="xMidYMid meet">
<metadata>
Created by potrace 1.11, written by Peter Selinger 2001-2013
</metadata>
<g transform="translate(0.000000,512.000000) scale(0.100000,-0.100000)"
fill="#000000" stroke="none">
<path d="M3059 3632 c-54 -81 -163 -248 -244 -372 -82 -124 -189 -288 -240
-365 -50 -77 -126 -192 -167 -255 -71 -110 -272 -416 -345 -527 -19 -29 -38
-53 -43 -53 -4 0 -34 42 -67 93 -33 50 -155 236 -271 412 -116 176 -341 518
-500 760 -158 242 -293 440 -298 440 -10 0 -14 -2325 -3 -2340 6 -8 333 -13
382 -6 4 1 7 253 7 562 0 308 3 558 8 555 6 -4 160 -244 409 -639 251 -398
320 -502 333 -504 12 -3 166 229 293 441 7 11 16 25 20 30 4 6 103 162 219
346 116 184 212 337 214 338 1 2 3 -249 3 -558 0 -309 2 -565 6 -568 10 -10
376 -8 383 2 7 12 9 2307 2 2335 -4 15 -28 -15 -101 -127z"/>
<path d="M3819 2049 c-101 -15 -203 -93 -248 -189 -22 -46 -26 -69 -26 -145 0
-76 4 -98 25 -140 86 -172 296 -240 466 -152 49 25 115 98 142 156 111 241
-94 510 -359 470z"/>
</g>
</svg>
